# Blender v2.62 (sub 0) OBJ File: ''
# www.blender.org
o Cube
v -1.506855 6.145345 -3.048193
v -2.167441 6.244841 -1.163059
v -1.916965 4.269899 -0.971053
v -1.256379 4.170404 -2.856186
v -3.377922 5.845837 -3.688041
v -4.038507 5.945332 -1.802908
v -3.788031 3.970390 -1.610901
v -3.127446 3.870895 -3.496034
vt 0.000000 0.000000
vt 1.000000 0.000000
vt 1.000000 1.000000
vt 0.000000 1.000000
vn 0.935533 0.149754 0.319924
vn -0.935533 -0.149754 -0.319924
vn -0.125238 0.987471 -0.096003
vn -0.330293 0.049748 0.942567
vn 0.125238 -0.987471 0.096003
vn 0.330293 -0.049748 -0.942567
s off
f 1/1/1 2/2/1 3/3/1
f 1/1/1 3/3/1 4/4/1
f 5/1/2 8/2/2 7/3/2
f 5/1/2 7/3/2 6/4/2
f 1/1/3 5/2/3 6/3/3
f 1/1/3 6/3/3 2/4/3
f 2/1/4 6/2/4 7/3/4
f 2/1/4 7/3/4 3/4/4
f 3/1/5 7/2/5 8/3/5
f 3/1/5 8/3/5 4/4/5
f 5/1/6 1/2/6 4/3/6
f 5/1/6 4/3/6 8/4/6
