# Blender v2.62 (sub 0) OBJ File: ''
# www.blender.org
o Cube
v 4.681785 0.733001 -2.486887
v 5.143569 2.080290 -1.082762
v 3.775395 1.278868 0.136181
v 3.313611 -0.068422 -1.267944
v 3.298003 1.974989 -3.223508
v 3.759786 3.322278 -1.819382
v 2.391612 2.520855 -0.600440
v 1.929828 1.173567 -2.004565
vt 0.000000 0.000000
vt 1.000000 0.000000
vt 1.000000 1.000000
vt 0.000000 1.000000
vn 0.691892 -0.620994 0.368311
vn -0.691891 0.620994 -0.368311
vn 0.684087 0.400711 -0.609471
vn 0.230892 0.673644 0.702063
vn -0.684087 -0.400711 0.609471
vn -0.230892 -0.673644 -0.702063
s off
f 1/1/1 2/2/1 3/3/1
f 1/1/1 3/3/1 4/4/1
f 5/1/2 8/2/2 7/3/2
f 5/1/2 7/3/2 6/4/2
f 1/1/3 5/2/3 6/3/3
f 1/1/3 6/3/3 2/4/3
f 2/1/4 6/2/4 7/3/4
f 2/1/4 7/3/4 3/4/4
f 3/1/5 7/2/5 8/3/5
f 3/1/5 8/3/5 4/4/5
f 5/1/6 1/2/6 4/3/6
f 5/1/6 4/3/6 8/4/6
