# Blender v2.62 (sub 0) OBJ File: ''
# www.blender.org
o Cube
v -0.625501 5.594563 -3.119606
v -1.246511 5.926787 -1.247716
v -0.882117 4.014872 -0.787499
v -0.261108 3.682649 -2.659389
v -2.491396 5.110612 -3.652734
v -3.112406 5.442835 -1.780843
v -2.748012 3.530920 -1.320627
v -2.127003 3.198696 -3.192518
vt 0.000000 0.000000
vt 1.000000 0.000000
vt 1.000000 1.000000
vt 0.000000 1.000000
vn 0.932948 0.241976 0.266564
vn -0.932948 -0.241976 -0.266564
vn -0.182197 0.955957 -0.230108
vn -0.310505 0.166112 0.935945
vn 0.182197 -0.955957 0.230108
vn 0.310505 -0.166112 -0.935945
s off
f 1/1/1 2/2/1 3/3/1
f 1/1/1 3/3/1 4/4/1
f 5/1/2 8/2/2 7/3/2
f 5/1/2 7/3/2 6/4/2
f 1/1/3 5/2/3 6/3/3
f 1/1/3 6/3/3 2/4/3
f 2/1/4 6/2/4 7/3/4
f 2/1/4 7/3/4 3/4/4
f 3/1/5 7/2/5 8/3/5
f 3/1/5 8/3/5 4/4/5
f 5/1/6 1/2/6 4/3/6
f 5/1/6 4/3/6 8/4/6
