# Blender v2.62 (sub 0) OBJ File: ''
# www.blender.org
o Cube
v -1.006222 5.848965 -3.085847
v -1.642280 6.065558 -1.202096
v -1.312871 4.121482 -0.867341
v -0.676814 3.904890 -2.751093
v -2.873553 5.432242 -3.668445
v -3.509610 5.648834 -1.784693
v -3.180201 3.704758 -1.449939
v -2.544144 3.488166 -3.333690
vt 0.000000 0.000000
vt 1.000000 0.000000
vt 1.000000 1.000000
vt 0.000000 1.000000
vn 0.933665 0.208362 0.291299
vn -0.933665 -0.208362 -0.291299
vn -0.164704 0.972038 -0.167377
vn -0.318029 0.108296 0.941876
vn 0.164705 -0.972038 0.167377
vn 0.318028 -0.108296 -0.941876
s off
f 1/1/1 2/2/1 3/3/1
f 1/1/1 3/3/1 4/4/1
f 5/1/2 8/2/2 7/3/2
f 5/1/2 7/3/2 6/4/2
f 1/1/3 5/2/3 6/3/3
f 1/1/3 6/3/3 2/4/3
f 2/1/4 6/2/4 7/3/4
f 2/1/4 7/3/4 3/4/4
f 3/1/5 7/2/5 8/3/5
f 3/1/5 8/3/5 4/4/5
f 5/1/6 1/2/6 4/3/6
f 5/1/6 4/3/6 8/4/6
