# Blender v2.62 (sub 0) OBJ File: ''
# www.blender.org
o Cube
v -1.449557 6.114203 -3.051802
v -2.107077 6.224623 -1.166205
v -1.846176 4.252492 -0.959740
v -1.188655 4.142072 -2.845337
v -3.320278 5.800349 -3.685755
v -3.977798 5.910768 -1.800158
v -3.716897 3.938637 -1.593694
v -3.059377 3.828217 -3.479290
vt 0.000000 0.000000
vt 1.000000 0.000000
vt 1.000000 1.000000
vt 0.000000 1.000000
vn 0.935361 0.156927 0.316977
vn -0.935361 -0.156927 -0.316977
vn -0.130451 0.986066 -0.103233
vn -0.328760 0.055210 0.942798
vn 0.130451 -0.986066 0.103233
vn 0.328760 -0.055210 -0.942798
s off
f 1/1/1 2/2/1 3/3/1
f 1/1/1 3/3/1 4/4/1
f 5/1/2 8/2/2 7/3/2
f 5/1/2 7/3/2 6/4/2
f 1/1/3 5/2/3 6/3/3
f 1/1/3 6/3/3 2/4/3
f 2/1/4 6/2/4 7/3/4
f 2/1/4 7/3/4 3/4/4
f 3/1/5 7/2/5 8/3/5
f 3/1/5 8/3/5 4/4/5
f 5/1/6 1/2/6 4/3/6
f 5/1/6 4/3/6 8/4/6
