# Blender v2.62 (sub 0) OBJ File: ''
# www.blender.org
o Cube
v 6.935262 -0.716356 -2.236657
v 7.053845 -0.575576 -0.245146
v 5.058892 -0.645272 -0.121431
v 4.940310 -0.786053 -2.112943
v 6.857153 1.277465 -2.372950
v 6.975735 1.418246 -0.381438
v 4.980783 1.348549 -0.257724
v 4.862200 1.207769 -2.249235
vt 0.000000 0.000000
vt 1.000000 0.000000
vt 1.000000 1.000000
vt 0.000000 1.000000
vn 0.039055 -0.996911 0.068146
vn -0.039055 0.996911 -0.068146
vn 0.997476 0.034848 -0.061857
vn 0.059291 0.070390 0.995756
vn -0.997477 -0.034849 0.061857
vn -0.059291 -0.070390 -0.995756
s off
f 1/1/1 2/2/1 3/3/1
f 1/1/1 3/3/1 4/4/1
f 5/1/2 8/2/2 7/3/2
f 5/1/2 7/3/2 6/4/2
f 1/1/3 5/2/3 6/3/3
f 1/1/3 6/3/3 2/4/3
f 2/1/4 6/2/4 7/3/4
f 2/1/4 7/3/4 3/4/4
f 3/1/5 7/2/5 8/3/5
f 3/1/5 8/3/5 4/4/5
f 5/1/6 1/2/6 4/3/6
f 5/1/6 4/3/6 8/4/6
