# Blender v2.62 (sub 0) OBJ File: ''
# www.blender.org
o Cube
v 1.899653 3.514450 -3.143421
v 1.490245 4.754053 -1.628242
v 1.476929 3.204365 -0.364006
v 1.886336 1.964763 -1.879186
v -0.057950 3.265745 -3.468902
v -0.467357 4.505348 -1.953721
v -0.480674 2.955660 -0.689486
v -0.071266 1.716058 -2.204666
vt 0.000000 0.000000
vt 1.000000 0.000000
vt 1.000000 1.000000
vt 0.000000 1.000000
vn 0.978801 0.124353 0.162740
vn -0.978801 -0.124353 -0.162740
vn 0.006658 0.774844 -0.632118
vn -0.204704 0.619801 0.757590
vn -0.006658 -0.774844 0.632118
vn 0.204704 -0.619801 -0.757590
s off
f 1/1/1 2/2/1 3/3/1
f 1/1/1 3/3/1 4/4/1
f 5/1/2 8/2/2 7/3/2
f 5/1/2 7/3/2 6/4/2
f 1/1/3 5/2/3 6/3/3
f 1/1/3 6/3/3 2/4/3
f 2/1/4 6/2/4 7/3/4
f 2/1/4 7/3/4 3/4/4
f 3/1/5 7/2/5 8/3/5
f 3/1/5 8/3/5 4/4/5
f 5/1/6 1/2/6 4/3/6
f 5/1/6 4/3/6 8/4/6
