# Blender v2.62 (sub 0) OBJ File: ''
# www.blender.org
o Cube
v 2.672256 2.775906 -3.018794
v 2.446396 4.214847 -1.648233
v 2.131639 2.826971 -0.242983
v 2.357499 1.388030 -1.613544
v 0.710135 2.832908 -3.401984
v 0.484275 4.271848 -2.031423
v 0.169519 2.883972 -0.626173
v 0.395379 1.445032 -1.996734
vt 0.000000 0.000000
vt 1.000000 0.000000
vt 1.000000 1.000000
vt 0.000000 1.000000
vn 0.981060 -0.028501 0.191595
vn -0.981060 0.028501 -0.191595
vn 0.157378 0.693938 -0.702625
vn -0.112930 0.719470 0.685281
vn -0.157378 -0.693938 0.702625
vn 0.112930 -0.719470 -0.685281
s off
f 1/1/1 2/2/1 3/3/1
f 1/1/1 3/3/1 4/4/1
f 5/1/2 8/2/2 7/3/2
f 5/1/2 7/3/2 6/4/2
f 1/1/3 5/2/3 6/3/3
f 1/1/3 6/3/3 2/4/3
f 2/1/4 6/2/4 7/3/4
f 2/1/4 7/3/4 3/4/4
f 3/1/5 7/2/5 8/3/5
f 3/1/5 8/3/5 4/4/5
f 5/1/6 1/2/6 4/3/6
f 5/1/6 4/3/6 8/4/6
