# Blender v2.62 (sub 0) OBJ File: ''
# www.blender.org
o Cube
v 1.144536 4.192847 -3.198171
v 0.624508 5.177692 -1.536952
v 0.827511 3.494707 -0.475655
v 1.347539 2.509862 -2.136875
v -0.775974 3.748280 -3.535808
v -1.296003 4.733124 -1.874588
v -1.093000 3.050139 -0.813292
v -0.572971 2.065294 -2.474511
vt 0.000000 0.000000
vt 1.000000 0.000000
vt 1.000000 1.000000
vt 0.000000 1.000000
vn 0.960255 0.222284 0.168818
vn -0.960255 -0.222284 -0.168818
vn -0.101501 0.841493 -0.530648
vn -0.260014 0.492422 0.830610
vn 0.101502 -0.841493 0.530648
vn 0.260014 -0.492423 -0.830610
s off
f 1/1/1 2/2/1 3/3/1
f 1/1/1 3/3/1 4/4/1
f 5/1/2 8/2/2 7/3/2
f 5/1/2 7/3/2 6/4/2
f 1/1/3 5/2/3 6/3/3
f 1/1/3 6/3/3 2/4/3
f 2/1/4 6/2/4 7/3/4
f 2/1/4 7/3/4 3/4/4
f 3/1/5 7/2/5 8/3/5
f 3/1/5 8/3/5 4/4/5
f 5/1/6 1/2/6 4/3/6
f 5/1/6 4/3/6 8/4/6
