# Blender v2.62 (sub 0) OBJ File: ''
# www.blender.org
o Cube
v 3.569396 -6.692721 -10.576401
v 5.411624 -9.699624 -3.045663
v -2.672387 -9.776637 -1.098839
v -4.514614 -6.769734 -8.629579
v 4.203630 1.059690 -7.636137
v 6.045854 -1.947213 -0.105397
v -2.038157 -2.024225 1.841423
v -3.880383 0.982678 -5.689314
vt 0.000000 0.000000
vt 1.000000 0.000000
vt 1.000000 1.000000
vt 0.000000 1.000000
vn -0.076271 -0.932286 -0.353589
vn 0.076271 0.932286 0.353589
vn 0.972164 0.009261 -0.234120
vn 0.221542 -0.361603 0.905628
vn -0.972164 -0.009261 0.234120
vn -0.221542 0.361603 -0.905628
s off
f 1/1/1 2/2/1 3/3/1
f 1/1/1 3/3/1 4/4/1
f 5/1/2 8/2/2 7/3/2
f 5/1/2 7/3/2 6/4/2
f 1/1/3 5/2/3 6/3/3
f 1/1/3 6/3/3 2/4/3
f 2/1/4 6/2/4 7/3/4
f 2/1/4 7/3/4 3/4/4
f 3/1/5 7/2/5 8/3/5
f 3/1/5 8/3/5 4/4/5
f 5/1/6 1/2/6 4/3/6
f 5/1/6 4/3/6 8/4/6
