# Blender v2.62 (sub 0) OBJ File: ''
# www.blender.org
o Cube
v 4.026999 -1.448744 -31.253769
v 13.364092 -11.310550 -26.337065
v 2.624852 -18.010038 -19.380333
v -6.712238 -8.148231 -24.297039
v 6.496411 6.704298 -19.590134
v 15.833498 -3.157511 -14.673425
v 5.094257 -9.856995 -7.716698
v -4.242832 0.004811 -12.633403
vt 0.000000 0.000000
vt 1.000000 0.000000
vt 1.000000 1.000000
vt 0.000000 1.000000
vn -0.170972 -0.564484 -0.807543
vn 0.170972 0.564484 0.807543
vn 0.743542 0.463846 -0.481656
vn 0.646463 -0.682792 0.340413
vn -0.743542 -0.463846 0.481656
vn -0.646463 0.682792 -0.340413
s off
f 1/1/1 2/2/1 3/3/1
f 1/1/1 3/3/1 4/4/1
f 5/1/2 8/2/2 7/3/2
f 5/1/2 7/3/2 6/4/2
f 1/1/3 5/2/3 6/3/3
f 1/1/3 6/3/3 2/4/3
f 2/1/4 6/2/4 7/3/4
f 2/1/4 7/3/4 3/4/4
f 3/1/5 7/2/5 8/3/5
f 3/1/5 8/3/5 4/4/5
f 5/1/6 1/2/6 4/3/6
f 5/1/6 4/3/6 8/4/6
