# Blender v2.62 (sub 0) OBJ File: ''
# www.blender.org
o Cube
v -2.225489 -1.726927 4.022472
v -2.185215 -1.790189 6.563026
v -4.726557 -1.790461 6.603305
v -4.766830 -1.727198 4.062751
v -2.224757 0.813946 4.085732
v -2.184485 0.750684 6.626286
v -4.725826 0.750412 6.666564
v -4.766099 0.813675 4.126010
vt 0.000000 0.000000
vt 1.000000 0.000000
vt 1.000000 1.000000
vt 0.000000 1.000000
vn -0.000288 -0.999690 -0.024889
vn 0.000288 0.999690 0.024889
vn 0.999874 0.000107 -0.015847
vn 0.015845 -0.024890 0.999565
vn -0.999874 -0.000107 0.015847
vn -0.015845 0.024891 -0.999565
s off
f 1/1/1 2/2/1 3/3/1
f 1/1/1 3/3/1 4/4/1
f 5/1/2 8/2/2 7/3/2
f 5/1/2 7/3/2 6/4/2
f 1/1/3 5/2/3 6/3/3
f 1/1/3 6/3/3 2/4/3
f 2/1/4 6/2/4 7/3/4
f 2/1/4 7/3/4 3/4/4
f 3/1/5 7/2/5 8/3/5
f 3/1/5 8/3/5 4/4/5
f 5/1/6 1/2/6 4/3/6
f 5/1/6 4/3/6 8/4/6
