# Blender v2.62 (sub 0) OBJ File: ''
# www.blender.org
o Cube
v -10.096121 26.335032 -20.727137
v -9.960868 26.849089 -19.909414
v -9.256650 27.361729 -20.348160
v -9.391904 26.847670 -21.165884
v -9.435058 25.683750 -20.427053
v -9.299804 26.197809 -19.609331
v -8.595587 26.710447 -20.048079
v -8.730840 26.196390 -20.865801
vt 0.000000 0.000000
vt 1.000000 0.000000
vt 1.000000 1.000000
vt 0.000000 1.000000
vn -0.677801 0.667771 -0.307681
vn 0.677801 -0.667770 0.307681
vn -0.722048 -0.525619 0.449857
vn 0.138678 0.527073 0.838429
vn 0.722048 0.525619 -0.449857
vn -0.138678 -0.527074 -0.838428
s off
f 1/1/1 2/2/1 3/3/1
f 1/1/1 3/3/1 4/4/1
f 5/1/2 8/2/2 7/3/2
f 5/1/2 7/3/2 6/4/2
f 1/1/3 5/2/3 6/3/3
f 1/1/3 6/3/3 2/4/3
f 2/1/4 6/2/4 7/3/4
f 2/1/4 7/3/4 3/4/4
f 3/1/5 7/2/5 8/3/5
f 3/1/5 8/3/5 4/4/5
f 5/1/6 1/2/6 4/3/6
f 5/1/6 4/3/6 8/4/6
