# Blender v2.62 (sub 0) OBJ File: ''
# www.blender.org
o Cube
v -7.562322 14.190372 -22.804594
v -2.880181 17.747728 -20.144329
v 1.561868 13.999900 -22.950790
v -3.120274 10.442542 -25.611055
v -7.560251 10.323432 -17.637291
v -2.878108 13.880788 -14.977026
v 1.563939 10.132957 -17.783487
v -3.118202 6.575601 -20.443752
vt 0.000000 0.000000
vt 1.000000 0.000000
vt 1.000000 1.000000
vt 0.000000 1.000000
vn -0.000321 0.599153 -0.800634
vn 0.000321 -0.599153 0.800634
vn -0.688262 0.580698 0.434840
vn 0.725462 0.551186 0.412188
vn 0.688262 -0.580698 -0.434840
vn -0.725462 -0.551186 -0.412188
s off
f 1/1/1 2/2/1 3/3/1
f 1/1/1 3/3/1 4/4/1
f 5/1/2 8/2/2 7/3/2
f 5/1/2 7/3/2 6/4/2
f 1/1/3 5/2/3 6/3/3
f 1/1/3 6/3/3 2/4/3
f 2/1/4 6/2/4 7/3/4
f 2/1/4 7/3/4 3/4/4
f 3/1/5 7/2/5 8/3/5
f 3/1/5 8/3/5 4/4/5
f 5/1/6 1/2/6 4/3/6
f 5/1/6 4/3/6 8/4/6
