# Blender v2.62 (sub 0) OBJ File: ''
# www.blender.org
o Cube
v -10.595823 29.795576 -20.561781
v -10.545430 30.034376 -20.143675
v -10.215992 30.323864 -20.348722
v -10.266386 30.085064 -20.766829
v -10.244671 29.489719 -20.429415
v -10.194277 29.728519 -20.011309
v -9.864840 30.018007 -20.216356
v -9.915233 29.779207 -20.634462
vt 0.000000 0.000000
vt 1.000000 0.000000
vt 1.000000 1.000000
vt 0.000000 1.000000
vn -0.725335 0.631772 -0.273411
vn 0.725335 -0.631772 0.273411
vn -0.680481 -0.597961 0.423541
vn 0.104092 0.493262 0.863630
vn 0.680481 0.597961 -0.423541
vn -0.104092 -0.493262 -0.863630
s off
f 1/1/1 2/2/1 3/3/1
f 1/1/1 3/3/1 4/4/1
f 5/1/2 8/2/2 7/3/2
f 5/1/2 7/3/2 6/4/2
f 1/1/3 5/2/3 6/3/3
f 1/1/3 6/3/3 2/4/3
f 2/1/4 6/2/4 7/3/4
f 2/1/4 7/3/4 3/4/4
f 3/1/5 7/2/5 8/3/5
f 3/1/5 8/3/5 4/4/5
f 5/1/6 1/2/6 4/3/6
f 5/1/6 4/3/6 8/4/6
