# Blender v2.62 (sub 0) OBJ File: ''
# www.blender.org
o Cube
v -8.636112 17.487900 -21.762342
v -6.692846 20.214716 -19.214680
v -3.149681 19.768141 -21.439302
v -5.092948 17.041325 -23.986965
v -7.464751 14.314978 -19.259769
v -5.521482 17.041794 -16.712109
v -1.978319 16.595217 -18.936731
v -3.921585 13.868402 -21.484394
vt 0.000000 0.000000
vt 1.000000 0.000000
vt 1.000000 1.000000
vt 0.000000 1.000000
vn -0.278404 0.754125 -0.594799
vn 0.278404 -0.754125 0.594799
vn -0.842123 0.106140 0.528738
vn 0.461867 0.648097 0.605516
vn 0.842123 -0.106140 -0.528738
vn -0.461867 -0.648097 -0.605516
s off
f 1/1/1 2/2/1 3/3/1
f 1/1/1 3/3/1 4/4/1
f 5/1/2 8/2/2 7/3/2
f 5/1/2 7/3/2 6/4/2
f 1/1/3 5/2/3 6/3/3
f 1/1/3 6/3/3 2/4/3
f 2/1/4 6/2/4 7/3/4
f 2/1/4 7/3/4 3/4/4
f 3/1/5 7/2/5 8/3/5
f 3/1/5 8/3/5 4/4/5
f 5/1/6 1/2/6 4/3/6
f 5/1/6 4/3/6 8/4/6
