# Blender v2.62 (sub 0) OBJ File: ''
# www.blender.org
o Cube
v -0.480746 -3.324439 0.002897
v -0.229792 -3.719165 3.953098
v -4.199610 -3.722975 4.204917
v -4.450563 -3.328249 0.254715
v -0.459539 0.633724 0.397072
v -0.208588 0.238998 4.347274
v -4.178405 0.235189 4.599092
v -4.429358 0.629915 0.648891
vt 0.000000 0.000000
vt 1.000000 0.000000
vt 1.000000 1.000000
vt 0.000000 1.000000
vn -0.005331 -0.995064 -0.099094
vn 0.005331 0.995064 0.099094
vn 0.997994 0.000958 -0.063306
vn 0.063088 -0.099232 0.993062
vn -0.997994 -0.000958 0.063306
vn -0.063088 0.099233 -0.993062
s off
f 1/1/1 2/2/1 3/3/1
f 1/1/1 3/3/1 4/4/1
f 5/1/2 8/2/2 7/3/2
f 5/1/2 7/3/2 6/4/2
f 1/1/3 5/2/3 6/3/3
f 1/1/3 6/3/3 2/4/3
f 2/1/4 6/2/4 7/3/4
f 2/1/4 7/3/4 3/4/4
f 3/1/5 7/2/5 8/3/5
f 3/1/5 8/3/5 4/4/5
f 5/1/6 1/2/6 4/3/6
f 5/1/6 4/3/6 8/4/6
