# Blender v2.62 (sub 0) OBJ File: ''
# www.blender.org
o Icosphere
v 0.000000 -0.265205 0.000000
v 0.191903 -0.118604 0.139424
v -0.073299 -0.118604 0.225594
v -0.237206 -0.118604 0.000000
v -0.073299 -0.118604 -0.225594
v 0.191903 -0.118604 -0.139424
v 0.073299 0.118604 0.225594
v -0.191903 0.118604 0.139424
v -0.191903 0.118604 -0.139424
v 0.073299 0.118604 -0.225594
v 0.237206 0.118604 0.000000
v 0.000000 0.265205 0.000000
vt 0.000000 0.000000
vt 1.000000 0.000000
vt 1.000000 1.000000
vn 0.187597 -0.794651 0.577354
vn 0.607065 -0.794652 0.000000
vn -0.491122 -0.794652 0.356829
vn -0.491122 -0.794652 -0.356829
vn 0.187597 -0.794651 -0.577354
vn 0.982246 -0.187597 0.000000
vn 0.303536 -0.187589 0.934172
vn -0.794649 -0.187587 0.577359
vn -0.794649 -0.187587 -0.577359
vn 0.303536 -0.187589 -0.934172
vn 0.794649 0.187587 0.577359
vn -0.303536 0.187589 0.934171
vn -0.982246 0.187597 0.000000
vn -0.303536 0.187589 -0.934171
vn 0.794649 0.187587 -0.577359
vn 0.491122 0.794652 0.356829
vn -0.187597 0.794651 0.577354
vn -0.607065 0.794652 0.000000
vn -0.187597 0.794651 -0.577354
vn 0.491122 0.794652 -0.356829
s off
f 3/1/1 1/2/1 2/3/1
f 2/1/2 1/2/2 6/3/2
f 4/1/3 1/2/3 3/3/3
f 5/1/4 1/2/4 4/3/4
f 6/1/5 1/2/5 5/3/5
f 2/1/6 6/2/6 11/3/6
f 3/1/7 2/2/7 7/3/7
f 4/1/8 3/2/8 8/3/8
f 5/1/9 4/2/9 9/3/9
f 6/1/10 5/2/10 10/3/10
f 7/1/11 2/2/11 11/3/11
f 8/1/12 3/2/12 7/3/12
f 9/1/13 4/2/13 8/3/13
f 10/1/14 5/2/14 9/3/14
f 11/1/15 6/2/15 10/3/15
f 7/1/16 11/2/16 12/3/16
f 8/1/17 7/2/17 12/3/17
f 9/1/18 8/2/18 12/3/18
f 10/1/19 9/2/19 12/3/19
f 11/1/20 10/2/20 12/3/20
