# Blender v2.62 (sub 0) OBJ File: ''
# www.blender.org
o Cube
v 5.076496 -1.895683 -4.950630
v 5.076496 -1.895683 4.950630
v -2.049055 -1.568416 -0.003007
v -2.049055 -1.568416 0.003007
v 5.076497 2.856963 -4.950629
v 5.076497 2.856963 4.950629
v -2.049056 0.113665 -0.003006
v -2.049056 0.113665 0.003006
v 5.076496 -1.895683 0.000000
v -2.049056 -1.568416 0.000000
v 5.076496 2.856963 0.000000
v -2.049056 0.113665 0.000000
v 0.000000 -1.568416 -4.268829
v 0.000000 -1.568416 4.268829
v 0.000001 0.113665 -4.268829
v 0.000001 0.113665 4.268829
v 0.000000 -1.568416 0.000000
v -0.000000 0.113665 0.000000
vt 0.999222 0.253534
vt 1.000000 0.507068
vt 0.756605 0.507815
vt 0.755827 0.254281
vt 0.755050 0.000747
vt 0.998444 0.000000
vt 0.058795 0.725950
vt 0.058794 0.725796
vt 0.144938 0.725531
vt 0.144938 0.725685
vt 0.144939 0.725839
vt 0.058795 0.726104
vt 0.389004 0.507815
vt 0.371439 0.770078
vt 0.285295 0.769813
vt 0.145609 0.507068
vt 0.528690 0.507333
vt 0.614834 0.507068
vt 0.632398 0.769331
vt 0.389004 0.770078
vt 0.144267 0.507068
vt 0.058124 0.507332
vt 0.145609 0.944303
vt 0.059465 0.944567
vt 0.493216 0.035716
vt 0.753494 0.000000
vt 0.754272 0.253534
vt 0.493887 0.254333
vt 0.755049 0.507068
vt 0.494558 0.472950
vt 0.389004 0.254655
vt 0.389004 0.254501
vt 0.389005 0.254809
vt 0.389003 0.254725
vt 0.287269 0.254413
vt 0.287940 0.035796
vt 0.389004 0.254571
vt 0.286599 0.473030
vt 0.389003 0.254879
vt 0.000778 0.253534
vt 0.001556 0.000000
vt 0.000000 0.507068
vn 1.000000 -0.000000 0.000000
vn -1.000000 -0.000000 -0.000159
vn -1.000000 -0.000000 0.000159
vn -0.133110 0.000000 -0.991101
vn -0.133110 0.000000 0.991101
vn -0.901403 0.000000 -0.432982
vn -0.901403 0.000000 0.432982
vn -0.064334 -0.997928 -0.000000
vn 0.000000 -1.000000 0.000000
vn 0.000000 1.000000 -0.000000
vn -0.475416 0.879761 -0.000000
s off
f 9/1/1 1/2/1 5/3/1
f 9/1/1 5/3/1 11/4/1
f 6/5/1 2/6/1 9/1/1
f 6/5/1 9/1/1 11/4/1
f 12/7/2 7/8/2 3/9/2
f 12/7/2 3/9/2 10/10/2
f 4/11/3 8/12/3 12/7/3
f 4/11/3 12/7/3 10/10/3
f 1/13/4 13/14/4 15/15/4
f 1/13/4 15/15/4 5/16/4
f 16/17/5 14/18/5 2/19/5
f 16/17/5 2/19/5 6/20/5
f 13/21/6 3/9/6 7/8/6
f 13/21/6 7/8/6 15/22/6
f 8/12/7 4/11/7 14/23/7
f 8/12/7 14/23/7 16/24/7
f 13/25/8 1/26/8 9/27/8
f 13/25/8 9/27/8 17/28/8
f 9/27/8 2/29/8 14/30/8
f 9/27/8 14/30/8 17/28/8
f 17/28/9 10/31/9 3/32/9
f 17/28/9 3/32/9 13/25/9
f 4/33/9 10/31/9 17/28/9
f 4/33/9 17/28/9 14/30/9
f 12/34/10 18/35/10 15/36/10
f 12/34/10 15/36/10 7/37/10
f 16/38/10 18/35/10 12/34/10
f 16/38/10 12/34/10 8/39/10
f 18/35/11 11/40/11 5/41/11
f 18/35/11 5/41/11 15/36/11
f 6/42/11 11/40/11 18/35/11
f 6/42/11 18/35/11 16/38/11
